<svg width="44" height="40" viewBox="0 0 44 40" fill="none" xmlns="http://www.w3.org/2000/svg">
<path d="M38.7506 26.2594L32.9019 22.3971C32.5826 22.1861 32.1503 22.2746 31.939 22.5973C31.7281 22.9196 31.8176 23.3531 32.1382 23.5645L36.9729 26.7572L16.6985 33.9928L2.23802 24.3785L10.5047 21.3554C10.8652 21.2236 11.052 20.8226 10.9199 20.4599C10.7887 20.0976 10.3893 19.9099 10.0292 20.0426L0.455303 23.544C0.105897 23.6716 -0.0776116 24.0521 0.0312884 24.4055V28.5565C0.0312884 28.638 0.047971 28.7149 0.0734582 28.7875C0.0780922 29.0087 0.186529 29.2238 0.383939 29.3552L16.2203 39.884C16.3385 39.9623 16.4719 40 16.6035 40C16.7412 40 16.8742 39.9544 16.99 39.8766L38.8038 32.0919C39.0606 32.0002 39.2279 31.7715 39.2584 31.5168C39.2969 31.4302 39.3191 31.3347 39.3191 31.2337V26.9453C39.3187 26.603 39.0735 26.3194 38.7506 26.2594ZM1.4215 25.511L15.9089 35.143V38.0018L1.4215 28.3698V25.511ZM17.2991 35.2608L37.9289 27.8985V30.9212L17.2991 38.2835V35.2608Z" fill="#F79489"/>
<path d="M44.0001 11.4509C44.0001 11.1023 43.7554 10.8131 43.4324 10.7519L27.7541 0.115493C27.7416 0.106945 27.7277 0.102196 27.7152 0.0945973C27.6938 0.0822499 27.673 0.0699025 27.6503 0.0599295C27.629 0.0504315 27.6077 0.042833 27.5863 0.0357095C27.5655 0.028586 27.5451 0.0219374 27.5238 0.0171884C27.5006 0.0119645 27.4774 0.00864007 27.4538 0.00579067C27.433 0.00341616 27.4121 0.000566943 27.3908 9.20419e-05C27.3667 -0.000382859 27.3431 0.00104186 27.319 0.00294147C27.2981 0.00436617 27.2773 0.00626575 27.2559 0.00959005C27.2314 0.0138642 27.2073 0.0205126 27.1832 0.0276361C27.1688 0.0319102 27.1545 0.0333351 27.1401 0.0380841L5.14394 7.97321C4.78852 8.10143 4.60038 8.4956 4.71391 8.8608V13.0884C4.71391 13.1691 4.72967 13.2456 4.75422 13.3177C4.75747 13.5452 4.86637 13.7675 5.06516 13.9023L20.8982 24.6437C21.0164 24.7234 21.1494 24.7619 21.2815 24.7619C21.4196 24.7619 21.553 24.7154 21.6689 24.6351L43.4824 16.7005C43.7382 16.6074 43.9046 16.3761 43.9366 16.1178C43.9764 16.028 44.0001 15.9287 44.0001 15.8238V11.4509ZM27.2754 1.49935L41.6586 11.2571L21.3765 18.6343L6.93493 8.83705L27.2754 1.49935ZM6.10408 9.98204L20.5868 19.8073V22.7232L6.10408 12.8979V9.98204ZM21.977 19.9274L42.6099 12.4226V15.5051L21.977 23.0105V19.9274Z" fill="#F79489"/>
</svg>
