<svg width="34" height="40" viewBox="0 0 34 40" fill="none" xmlns="http://www.w3.org/2000/svg">
<path d="M31.8109 21.9041L22.3909 20.5134L18.1786 11.8408C18.0744 11.6256 17.8588 11.4894 17.6222 11.4894C17.3855 11.4894 17.1699 11.6256 17.0657 11.8408L12.8538 20.5134L3.43385 21.9041C3.2005 21.9386 3.00604 22.105 2.93281 22.3333C2.85958 22.5616 2.92082 22.8126 3.09003 22.9799L9.90553 29.7304L8.29692 39.2626C8.25679 39.4993 8.35278 39.7385 8.54392 39.8798C8.73548 40.0206 8.98869 40.0391 9.19763 39.9277L17.6217 35.4268L26.0471 39.9277C26.1381 39.9761 26.237 40 26.3359 40C26.4646 40 26.5924 39.9592 26.7008 39.8798C26.8919 39.7385 26.9875 39.4993 26.9478 39.2626L25.3375 29.7304L32.1539 22.9799C32.3231 22.8126 32.3839 22.5616 32.3111 22.3333C32.2387 22.105 32.0442 21.9386 31.8109 21.9041ZM24.2386 29.0585C24.0922 29.2036 24.0256 29.4121 24.0599 29.6168L25.5125 38.2162L17.9114 34.156C17.7301 34.0597 17.5146 34.0597 17.3338 34.156L9.73383 38.2162L11.1848 29.6168C11.2191 29.4121 11.1525 29.2036 11.0061 29.0585L4.85793 22.969L13.3561 21.7145C13.558 21.6846 13.733 21.5556 13.8232 21.3697L17.623 13.546L21.4232 21.3697C21.5134 21.5556 21.6884 21.6846 21.8903 21.7145L30.3884 22.969L24.2386 29.0585Z" fill="#F79489"/>
<path d="M6.86638 14.8936C7.09065 14.8936 7.30578 14.7623 7.40718 14.5385C7.54676 14.2307 7.41752 13.8641 7.11889 13.72L0.849145 10.6959C0.551306 10.5527 0.195807 10.6857 0.0562321 10.9935C-0.0833429 11.3014 0.045893 11.668 0.344528 11.8121L6.61427 14.8362C6.69579 14.8752 6.78168 14.8936 6.86638 14.8936Z" fill="#F79489"/>
<path d="M33.9437 10.9935C33.8038 10.6857 33.4483 10.5527 33.1508 10.6959L26.881 13.72C26.5823 13.8645 26.4535 14.2307 26.5927 14.5385C26.6941 14.7623 26.9092 14.8936 27.1335 14.8936C27.2182 14.8936 27.3041 14.8752 27.3856 14.8357L33.6554 11.8116C33.9545 11.668 34.0833 11.3014 33.9437 10.9935Z" fill="#F79489"/>
<path d="M17.6219 8.51064C17.9653 8.51064 18.2439 8.22964 18.2439 7.88341V0.627227C18.2439 0.28058 17.9653 0 17.6219 0C17.2786 0 17 0.28058 17 0.627227V7.88341C17 8.22964 17.2786 8.51064 17.6219 8.51064Z" fill="#F79489"/>
</svg>
