<svg width="37" height="40" viewBox="0 0 37 40" fill="none" xmlns="http://www.w3.org/2000/svg">
<path d="M35.4741 3.5503H31.1585V2.78027C31.1585 1.24711 29.9192 0 28.3964 0C26.8688 0 25.6263 1.24764 25.6263 2.78027V3.5503H20.8931V2.78027C20.8931 1.24711 19.6522 0 18.1273 0C16.6002 0 15.3577 1.24764 15.3577 2.78027V3.5503H10.6245V2.78027C10.6245 1.24711 9.38362 0 7.85867 0C6.33319 0 5.09232 1.24764 5.09232 2.78027V3.5503H0.792045C0.354308 3.5503 0 3.90692 0 4.34633V39.204C0 39.6434 0.354308 40 0.792045 40H35.4746C35.9124 40 36.2667 39.6434 36.2667 39.204V4.34633C36.2661 3.90692 35.9118 3.5503 35.4741 3.5503ZM27.2099 2.78027C27.2099 2.1254 27.7422 1.59206 28.3959 1.59206C29.0453 1.59206 29.5739 2.1254 29.5739 2.78027V6.48977C29.5739 7.14517 29.0453 7.67851 28.3959 7.67851C27.7422 7.67851 27.2099 7.14517 27.2099 6.48977V2.78027ZM16.9418 2.78027C16.9418 2.1254 17.4736 1.59206 18.1273 1.59206C18.7788 1.59206 19.309 2.1254 19.309 2.78027V6.48977C19.309 7.14517 18.7788 7.67851 18.1273 7.67851C17.4736 7.67851 16.9418 7.14517 16.9418 6.48977V2.78027ZM6.67641 2.78027C6.67641 2.1254 7.20655 1.59206 7.85867 1.59206C8.51025 1.59206 9.0404 2.1254 9.0404 2.78027V6.48977C9.0404 7.14517 8.51025 7.67851 7.85867 7.67851C7.20708 7.67851 6.67641 7.14517 6.67641 6.48977V2.78027ZM34.6821 38.4074H1.58356V5.14183H5.09179V6.48924C5.09179 8.02293 6.33266 9.27004 7.85814 9.27004C9.38309 9.27004 10.624 8.0224 10.624 6.48924V5.14183H15.3572V6.48924C15.3572 8.02293 16.5997 9.27004 18.1267 9.27004C19.6517 9.27004 20.8926 8.0224 20.8926 6.48924V5.14183H25.6258V6.48924C25.6258 8.02293 26.8688 9.27004 28.3959 9.27004C29.9192 9.27004 31.158 8.0224 31.158 6.48924V5.14183H34.6815V38.4074H34.6821Z" fill="#F79489"/>
<path d="M25.8311 16.2658L17.0127 26.3102L12.5376 21.7603C12.2315 21.449 11.7357 21.449 11.4296 21.7603C11.1234 22.0716 11.1234 22.5757 11.4296 22.887L16.4908 28.0335C16.6376 28.1833 16.8371 28.2667 17.0451 28.2667C17.0524 28.2667 17.0597 28.2667 17.067 28.2661C17.2828 28.2598 17.486 28.1641 17.6296 28.0005L27.0008 17.3272C27.2892 16.9989 27.261 16.4953 26.9381 16.2021C26.6142 15.9094 26.12 15.9381 25.8311 16.2658Z" fill="#F79489"/>
</svg>
